<svg width="16" height="16" viewBox="0 0 16 16" fill="none" xmlns="http://www.w3.org/2000/svg">
<path d="M2.33337 4.43092L3.85291 3L7.66671 3.00029L10 3.00137H12.1486L13.6667 4.43092V12.2631L12.1486 13.6667H3.85291L2.33337 12.2631V4.43092Z" stroke="#666668" stroke-width="0.666667" stroke-miterlimit="10"/>
<path d="M5.66663 2V3.93939" stroke="#666668" stroke-width="0.666667" stroke-miterlimit="10" stroke-linecap="round" stroke-linejoin="round"/>
<path d="M10.3334 2V3.93939" stroke="#666668" stroke-width="0.666667" stroke-miterlimit="10" stroke-linecap="round" stroke-linejoin="round"/>
<mask id="path-4-inside-1_196_72518" fill="white">
<path d="M5.99996 6.66663H4.66663V7.33329H5.99996V6.66663Z"/>
</mask>
<path d="M4.66663 6.66663V5.99996H3.99996V6.66663H4.66663ZM5.99996 6.66663H6.66663V5.99996H5.99996V6.66663ZM5.99996 7.33329V7.99996H6.66663V7.33329H5.99996ZM4.66663 7.33329H3.99996V7.99996H4.66663V7.33329ZM4.66663 7.33329H5.99996V5.99996H4.66663V7.33329ZM5.33329 6.66663V7.33329H6.66663V6.66663H5.33329ZM5.99996 6.66663H4.66663V7.99996H5.99996V6.66663ZM5.33329 7.33329V6.66663H3.99996V7.33329H5.33329Z" fill="#666668" mask="url(#path-4-inside-1_196_72518)"/>
<mask id="path-6-inside-2_196_72518" fill="white">
<path d="M8.66671 6.66663H7.33337V7.33329H8.66671V6.66663Z"/>
</mask>
<path d="M7.33337 6.66663V5.99996H6.66671V6.66663H7.33337ZM8.66671 6.66663H9.33337V5.99996H8.66671V6.66663ZM8.66671 7.33329V7.99996H9.33337V7.33329H8.66671ZM7.33337 7.33329H6.66671V7.99996H7.33337V7.33329ZM7.33337 7.33329H8.66671V5.99996H7.33337V7.33329ZM8.00004 6.66663V7.33329H9.33337V6.66663H8.00004ZM8.66671 6.66663H7.33337V7.99996H8.66671V6.66663ZM8.00004 7.33329V6.66663H6.66671V7.33329H8.00004Z" fill="#666668" mask="url(#path-6-inside-2_196_72518)"/>
<mask id="path-8-inside-3_196_72518" fill="white">
<path d="M5.99996 9.33337H4.66663V10H5.99996V9.33337Z"/>
</mask>
<path d="M4.66663 9.33337V8.66671H3.99996V9.33337H4.66663ZM5.99996 9.33337H6.66663V8.66671H5.99996V9.33337ZM5.99996 10V10.6667H6.66663V10H5.99996ZM4.66663 10H3.99996V10.6667H4.66663V10ZM4.66663 10H5.99996V8.66671H4.66663V10ZM5.33329 9.33337V10H6.66663V9.33337H5.33329ZM5.99996 9.33337H4.66663V10.6667H5.99996V9.33337ZM5.33329 10V9.33337H3.99996V10H5.33329Z" fill="#666668" mask="url(#path-8-inside-3_196_72518)"/>
<mask id="path-10-inside-4_196_72518" fill="white">
<path d="M8.66671 9.33337H7.33337V10H8.66671V9.33337Z"/>
</mask>
<path d="M7.33337 9.33337V8.66671H6.66671V9.33337H7.33337ZM8.66671 9.33337H9.33337V8.66671H8.66671V9.33337ZM8.66671 10V10.6667H9.33337V10H8.66671ZM7.33337 10H6.66671V10.6667H7.33337V10ZM7.33337 10H8.66671V8.66671H7.33337V10ZM8.00004 9.33337V10H9.33337V9.33337H8.00004ZM8.66671 9.33337H7.33337V10.6667H8.66671V9.33337ZM8.00004 10V9.33337H6.66671V10H8.00004Z" fill="#666668" mask="url(#path-10-inside-4_196_72518)"/>
<mask id="path-12-inside-5_196_72518" fill="white">
<path d="M11.3333 9.33337H10V10H11.3333V9.33337Z"/>
</mask>
<path d="M10 9.33337V8.66671H9.33333V9.33337H10ZM11.3333 9.33337H12V8.66671H11.3333V9.33337ZM11.3333 10V10.6667H12V10H11.3333ZM10 10H9.33333V10.6667H10V10ZM10 10H11.3333V8.66671H10V10ZM10.6667 9.33337V10H12V9.33337H10.6667ZM11.3333 9.33337H10V10.6667H11.3333V9.33337ZM10.6667 10V9.33337H9.33333V10H10.6667Z" fill="#666668" mask="url(#path-12-inside-5_196_72518)"/>
<mask id="path-14-inside-6_196_72518" fill="white">
<path d="M11.3333 6.66663H10V7.33329H11.3333V6.66663Z"/>
</mask>
<path d="M10 6.66663V5.99996H9.33333V6.66663H10ZM11.3333 6.66663H12V5.99996H11.3333V6.66663ZM11.3333 7.33329V7.99996H12V7.33329H11.3333ZM10 7.33329H9.33333V7.99996H10V7.33329ZM10 7.33329H11.3333V5.99996H10V7.33329ZM10.6667 6.66663V7.33329H12V6.66663H10.6667ZM11.3333 6.66663H10V7.99996H11.3333V6.66663ZM10.6667 7.33329V6.66663H9.33333V7.33329H10.6667Z" fill="#666668" mask="url(#path-14-inside-6_196_72518)"/>
</svg>
