<svg width="24" height="24" viewBox="0 0 24 24" fill="none" xmlns="http://www.w3.org/2000/svg">
<path d="M13.751 19.218C13.751 19.6284 13.4183 19.9611 13.0076 19.9611H4.88025C4.46969 19.9611 4.1368 19.6284 4.1368 19.218V4.81299C4.1368 4.40243 4.46969 4.06974 4.88025 4.06974H13.0078C13.4185 4.06974 13.7512 4.40263 13.7512 4.81299V9.17342H14.8882V3.76387C14.8882 3.3421 14.5461 3 14.1244 3H3.76407C3.3421 3 3 3.3421 3 3.76387V20.2359C3 20.6579 3.3421 21 3.76407 21H14.1242C14.5461 21 14.888 20.6579 14.888 20.2359V14.888H13.751V19.218Z" fill="#666668"/>
<path d="M19.863 11.3288L17.1561 8.55696C16.9555 8.35158 16.6264 8.34778 16.4208 8.54836C16.2156 8.74893 16.2116 9.07802 16.4122 9.2836L18.5417 11.4645H8.6392C8.35174 11.4645 8.11914 11.6973 8.11914 11.9844C8.11914 12.2714 8.35174 12.504 8.6392 12.504H18.6592L16.389 14.7206C16.1838 14.9214 16.1798 15.2506 16.3804 15.456C16.5812 15.6614 16.9101 15.6652 17.1154 15.4646L19.8452 12.7995L20.5893 12.0729L19.863 11.3288Z" fill="#666668"/>
</svg>
