<svg width="24" height="24" viewBox="0 0 24 24" fill="none" xmlns="http://www.w3.org/2000/svg">
<path d="M14.625 8.25C14.625 9.69975 13.4497 10.875 12 10.875C10.5503 10.875 9.375 9.69975 9.375 8.25C9.375 6.80025 10.5503 5.625 12 5.625C13.4497 5.625 14.625 6.80025 14.625 8.25Z" stroke="#666668" stroke-width="0.75" stroke-miterlimit="10"/>
<path d="M7.07327 15.575C6.85845 15.4869 6.68736 15.3374 6.59755 15.1793C6.51281 15.0303 6.50236 14.8837 6.57421 14.7404C6.88557 14.119 7.5589 13.5254 8.51871 13.0846C9.47225 12.6467 10.6774 12.375 12 12.375C13.3221 12.375 14.5268 12.6472 15.4803 13.0854C16.44 13.5266 17.1135 14.1203 17.4253 14.7409C17.4972 14.8841 17.4869 15.0305 17.4023 15.1794C17.3126 15.3374 17.1415 15.4869 16.9267 15.575L12.4267 17.4198C12.1533 17.5319 11.8467 17.5319 11.5733 17.4198L7.07327 15.575Z" stroke="#666668" stroke-width="0.75" stroke-miterlimit="10" stroke-linecap="round" stroke-linejoin="round"/>
<circle cx="12" cy="12" r="11.625" stroke="#DEE3E6" stroke-width="0.75"/>
</svg>
