<svg width="294" height="61" viewBox="0 0 294 61" fill="none" xmlns="http://www.w3.org/2000/svg">
<g clip-path="url(#clip0_133_10882)">
<path d="M225.173 14.9249V-0.000582512H220.098V24.7013H224.89L232.429 9.77581V24.7013H237.504V-0.000582512H232.711L225.173 14.9249Z" fill="white"/>
<path d="M240.884 -0.000614903V4.76607H249.509V9.86187H243.084V14.6286H249.509V19.9355H240.844V24.704H251.02L254.597 21.1301V15.1495L251.654 12.2105L254.597 9.27151V3.57056L251.02 -0.000614903H240.884Z" fill="white"/>
<path d="M288.288 19.9346H283.155V13.0166H288.288V19.9346ZM289.628 8.24931H283.155V-0.000325918H278.068V24.7023H289.8L293.376 21.1314V11.8216L289.628 8.24931Z" fill="white"/>
<path d="M217.386 -0.000582512H212.172L208.926 9.84956H207.126V-0.000582512H202.038V9.84956H200.238L196.992 -0.000582512H191.778L195.995 12.0712L191.735 24.7013H196.997L200.268 14.6165H202.038V24.7013H207.126V14.6165H208.896L212.167 24.7013H217.429L213.169 12.0712L217.386 -0.000582512Z" fill="white"/>
<path d="M269.219 10.0942H263.014V-0.000582512H257.926V7.6522V16.7691V24.7013H263.014V14.872H269.219V24.7013H274.307V-0.000582512H269.219V10.0942Z" fill="white"/>
<path d="M53.0138 24.7035H58.1018V4.76706H64.5707V0.000323733H53.0138V24.7035Z" fill="white"/>
<path d="M114.505 4.76706H119.591V24.7035H124.679V4.76706H129.764V0.000323733H114.505V4.76706Z" fill="white"/>
<path d="M10.1064 13.6624H4.97364V4.76806H10.1064V13.6624ZM0 0.000264467V24.7032H4.97364V18.4297H11.4464L15.1947 14.8576V3.57144L11.6189 0.000264467H0Z" fill="white"/>
<path d="M181.639 12.039L185.255 0.000499126H180.156L177.405 9.33316H176.488L173.738 0.000499126H168.638L172.264 12.091L168.589 24.7031H173.617L176.535 14.9617H177.357L180.279 24.7031H185.303L181.639 12.039Z" fill="white"/>
<path d="M29.1513 19.9366H23.1876V4.76743H29.1513V19.9366ZM21.674 0.000508607L18.098 3.57169V21.1307L21.6764 24.7035H30.6588L34.241 21.1307V3.57169L30.6588 0.000508607H21.674Z" fill="white"/>
<path d="M42.5477 4.7672H49.7586V0.000464899H41.0365L37.4599 3.57164V21.1308L41.0365 24.7054H49.799V19.9367H42.5477V4.7672Z" fill="white"/>
<path d="M77.1713 19.9366H71.2073V4.76743H77.1713V19.9366ZM69.6935 0.000508607L66.1179 3.57169V21.1307L69.6959 24.7035H78.6786L82.2607 21.1307V3.57169L78.6786 0.000508607H69.6935Z" fill="white"/>
<path d="M142.518 13.6627H137.385V4.76831H142.518V13.6627ZM132.412 0.000508607V24.7035H137.385V18.43H143.858L147.607 14.8579V3.57169L144.031 0.000508607H132.412Z" fill="white"/>
<path d="M90.5671 4.7672H97.7783V0.000464899H89.0562L85.4796 3.57164V21.1314L89.0562 24.7054H97.8187V19.9367H90.5671V4.7672Z" fill="white"/>
<path d="M105.351 4.7672H112.562V0.000464899H103.84L100.263 3.57164V21.1314L103.84 24.7054H112.603V19.9367H105.351V4.7672Z" fill="white"/>
<path d="M155.603 14.1741L157.448 4.76735H158.419L160.265 14.1741H155.603ZM162.33 24.7029H167.449L162.344 0.000619361H153.65L148.545 24.7029H153.538L154.693 18.8149H161.175L162.33 24.7029Z" fill="white"/>
</g>
<path d="M65.7422 47.5469V48.7422H62.3672V47.5469H65.7422ZM62.5469 47.5469V56H61.1641V47.5469H62.5469ZM66.9844 47.5469V56H65.6016V47.5469H66.9844ZM73.9141 47.5469V48.7422H70.5469V47.5469H73.9141ZM75.1484 47.5469V56H73.7734V47.5469H75.1484ZM70.2188 47.5469H71.6016L71.4062 51.625C71.375 52.2552 71.3229 52.8125 71.25 53.2969C71.1823 53.776 71.0859 54.1875 70.9609 54.5312C70.8411 54.875 70.6901 55.1562 70.5078 55.375C70.3307 55.5885 70.1172 55.7474 69.8672 55.8516C69.6224 55.9505 69.3385 56 69.0156 56H68.6016V54.7266L68.875 54.7031C69.0573 54.6875 69.2135 54.6354 69.3438 54.5469C69.4792 54.4583 69.5885 54.3281 69.6719 54.1562C69.7604 53.9792 69.8307 53.7526 69.8828 53.4766C69.9401 53.2005 69.9844 52.8724 70.0156 52.4922C70.0469 52.112 70.0703 51.6693 70.0859 51.1641L70.2188 47.5469ZM81.5078 54.5547V49.9688C81.5078 49.6354 81.4557 49.3672 81.3516 49.1641C81.2526 48.9609 81.1016 48.8125 80.8984 48.7188C80.7005 48.625 80.4505 48.5781 80.1484 48.5781C79.8568 48.5781 79.6042 48.638 79.3906 48.7578C79.1823 48.8776 79.0208 49.0365 78.9062 49.2344C78.7969 49.4323 78.7422 49.651 78.7422 49.8906H77.3594C77.3594 49.5885 77.4245 49.2891 77.5547 48.9922C77.6901 48.6953 77.8828 48.4271 78.1328 48.1875C78.3828 47.9427 78.6823 47.75 79.0312 47.6094C79.3854 47.4635 79.7812 47.3906 80.2188 47.3906C80.7396 47.3906 81.2005 47.4766 81.6016 47.6484C82.0026 47.8151 82.3177 48.0885 82.5469 48.4688C82.776 48.849 82.8906 49.3542 82.8906 49.9844V54.1562C82.8906 54.4375 82.9115 54.737 82.9531 55.0547C83 55.3724 83.0651 55.6458 83.1484 55.875V56H81.7188C81.651 55.8333 81.599 55.612 81.5625 55.3359C81.526 55.0547 81.5078 54.7943 81.5078 54.5547ZM81.7266 50.875L81.7422 51.8906H80.7812C80.4531 51.8906 80.1536 51.9271 79.8828 52C79.6172 52.0729 79.388 52.1797 79.1953 52.3203C79.0026 52.4557 78.8542 52.625 78.75 52.8281C78.651 53.0312 78.6016 53.263 78.6016 53.5234C78.6016 53.862 78.6484 54.1328 78.7422 54.3359C78.8359 54.5339 78.9766 54.6771 79.1641 54.7656C79.3516 54.8542 79.5885 54.8984 79.875 54.8984C80.224 54.8984 80.5312 54.8177 80.7969 54.6562C81.0625 54.4948 81.2682 54.2995 81.4141 54.0703C81.5651 53.8411 81.6354 53.6276 81.625 53.4297L81.9297 54.0781C81.9089 54.2812 81.8411 54.5026 81.7266 54.7422C81.6172 54.9766 81.4635 55.2031 81.2656 55.4219C81.0677 55.6354 80.8333 55.8125 80.5625 55.9531C80.2969 56.0885 79.9974 56.1562 79.6641 56.1562C79.1745 56.1562 78.7448 56.0625 78.375 55.875C78.0104 55.6875 77.7266 55.4115 77.5234 55.0469C77.3203 54.6823 77.2188 54.2318 77.2188 53.6953C77.2188 53.2891 77.2891 52.9141 77.4297 52.5703C77.5703 52.2266 77.7786 51.9297 78.0547 51.6797C78.3307 51.4245 78.6771 51.2266 79.0938 51.0859C79.5156 50.9453 80.0026 50.875 80.5547 50.875H81.7266ZM89.8516 51.2109V52.3828H86.2656V51.2109H89.8516ZM86.5469 47.5469V56H85.1641V47.5469H86.5469ZM90.9766 47.5469V56H89.5938V47.5469H90.9766ZM94.6797 53.7109L97.7422 47.5469H99.125V56H97.7422V49.8359L94.6797 56H93.3047V47.5469H94.6797V53.7109ZM102.719 49.1719V59.25H101.336V47.5469H102.594L102.719 49.1719ZM107.445 51.3906V52.1797C107.445 52.8464 107.383 53.4297 107.258 53.9297C107.138 54.4245 106.958 54.8385 106.719 55.1719C106.484 55.5 106.195 55.7474 105.852 55.9141C105.508 56.0755 105.115 56.1562 104.672 56.1562C104.229 56.1562 103.844 56.0729 103.516 55.9062C103.193 55.7344 102.919 55.487 102.695 55.1641C102.477 54.8411 102.302 54.4531 102.172 54C102.047 53.5417 101.961 53.0286 101.914 52.4609V51.2578C101.961 50.6589 102.047 50.1224 102.172 49.6484C102.297 49.1693 102.469 48.763 102.688 48.4297C102.911 48.0911 103.185 47.8333 103.508 47.6562C103.836 47.4792 104.219 47.3906 104.656 47.3906C105.109 47.3906 105.508 47.4688 105.852 47.625C106.201 47.7812 106.492 48.0234 106.727 48.3516C106.966 48.6745 107.146 49.0885 107.266 49.5938C107.385 50.0938 107.445 50.6927 107.445 51.3906ZM106.062 52.1797V51.3906C106.062 50.9219 106.026 50.513 105.953 50.1641C105.885 49.8151 105.776 49.526 105.625 49.2969C105.474 49.0677 105.284 48.8958 105.055 48.7812C104.826 48.6667 104.549 48.6094 104.227 48.6094C103.951 48.6094 103.706 48.6667 103.492 48.7812C103.284 48.8958 103.104 49.0521 102.953 49.25C102.802 49.4427 102.677 49.6641 102.578 49.9141C102.479 50.1589 102.406 50.4141 102.359 50.6797V53.0469C102.448 53.3802 102.565 53.6953 102.711 53.9922C102.857 54.2839 103.052 54.5208 103.297 54.7031C103.547 54.8854 103.862 54.9766 104.242 54.9766C104.56 54.9766 104.833 54.9193 105.062 54.8047C105.292 54.6901 105.479 54.5182 105.625 54.2891C105.776 54.0547 105.885 53.763 105.953 53.4141C106.026 53.0599 106.062 52.6484 106.062 52.1797ZM108.938 52.1797V51.375C108.938 50.7188 109.021 50.1432 109.188 49.6484C109.354 49.1484 109.586 48.7318 109.883 48.3984C110.18 48.0651 110.526 47.8151 110.922 47.6484C111.318 47.4766 111.742 47.3906 112.195 47.3906C112.659 47.3906 113.089 47.4766 113.484 47.6484C113.88 47.8151 114.227 48.0651 114.523 48.3984C114.826 48.7318 115.06 49.1484 115.227 49.6484C115.393 50.1432 115.477 50.7188 115.477 51.375V52.1797C115.477 52.8359 115.393 53.4141 115.227 53.9141C115.06 54.4089 114.828 54.8229 114.531 55.1562C114.234 55.4896 113.888 55.7396 113.492 55.9062C113.096 56.0729 112.669 56.1562 112.211 56.1562C111.753 56.1562 111.326 56.0729 110.93 55.9062C110.534 55.7396 110.185 55.4896 109.883 55.1562C109.586 54.8229 109.354 54.4089 109.188 53.9141C109.021 53.4141 108.938 52.8359 108.938 52.1797ZM110.32 51.375V52.1797C110.32 52.6432 110.367 53.0495 110.461 53.3984C110.555 53.7474 110.688 54.0391 110.859 54.2734C111.031 54.5078 111.232 54.6849 111.461 54.8047C111.69 54.9193 111.94 54.9766 112.211 54.9766C112.523 54.9766 112.797 54.9193 113.031 54.8047C113.271 54.6849 113.469 54.5078 113.625 54.2734C113.781 54.0391 113.898 53.7474 113.977 53.3984C114.055 53.0495 114.094 52.6432 114.094 52.1797V51.375C114.094 50.9115 114.047 50.5078 113.953 50.1641C113.859 49.8151 113.727 49.5234 113.555 49.2891C113.383 49.0495 113.18 48.8724 112.945 48.7578C112.716 48.638 112.466 48.5781 112.195 48.5781C111.93 48.5781 111.682 48.638 111.453 48.7578C111.224 48.8724 111.023 49.0495 110.852 49.2891C110.685 49.5234 110.555 49.8151 110.461 50.1641C110.367 50.5078 110.32 50.9115 110.32 51.375ZM120.664 52.2812H118.406L118.391 51.125H120.203C120.562 51.125 120.859 51.0807 121.094 50.9922C121.333 50.9036 121.513 50.7708 121.633 50.5938C121.753 50.4167 121.812 50.1979 121.812 49.9375C121.812 49.7344 121.779 49.5573 121.711 49.4062C121.643 49.25 121.542 49.1224 121.406 49.0234C121.276 48.9193 121.112 48.8438 120.914 48.7969C120.716 48.7448 120.484 48.7188 120.219 48.7188H118.758V56H117.383V47.5469H120.219C120.677 47.5469 121.089 47.5938 121.453 47.6875C121.823 47.7812 122.135 47.9245 122.391 48.1172C122.651 48.3047 122.849 48.5443 122.984 48.8359C123.125 49.1276 123.195 49.4714 123.195 49.8672C123.195 50.1224 123.151 50.3646 123.062 50.5938C122.974 50.8229 122.841 51.026 122.664 51.2031C122.492 51.3802 122.279 51.526 122.023 51.6406C121.768 51.75 121.474 51.8203 121.141 51.8516L120.664 52.2812ZM120.664 56H117.891L118.602 54.8281H120.664C120.982 54.8281 121.242 54.7786 121.445 54.6797C121.648 54.5755 121.799 54.4297 121.898 54.2422C122.003 54.0495 122.055 53.8203 122.055 53.5547C122.055 53.2891 122.003 53.0625 121.898 52.875C121.799 52.6823 121.648 52.5365 121.445 52.4375C121.242 52.3333 120.982 52.2812 120.664 52.2812H118.812L118.828 51.125H121.117L121.602 51.5625C122.003 51.599 122.339 51.7135 122.609 51.9062C122.885 52.099 123.091 52.3438 123.227 52.6406C123.367 52.9323 123.438 53.25 123.438 53.5938C123.438 53.9896 123.375 54.3385 123.25 54.6406C123.125 54.9427 122.943 55.1953 122.703 55.3984C122.464 55.5964 122.172 55.7474 121.828 55.8516C121.484 55.9505 121.096 56 120.664 56ZM129.461 54.5547V49.9688C129.461 49.6354 129.409 49.3672 129.305 49.1641C129.206 48.9609 129.055 48.8125 128.852 48.7188C128.654 48.625 128.404 48.5781 128.102 48.5781C127.81 48.5781 127.557 48.638 127.344 48.7578C127.135 48.8776 126.974 49.0365 126.859 49.2344C126.75 49.4323 126.695 49.651 126.695 49.8906H125.312C125.312 49.5885 125.378 49.2891 125.508 48.9922C125.643 48.6953 125.836 48.4271 126.086 48.1875C126.336 47.9427 126.635 47.75 126.984 47.6094C127.339 47.4635 127.734 47.3906 128.172 47.3906C128.693 47.3906 129.154 47.4766 129.555 47.6484C129.956 47.8151 130.271 48.0885 130.5 48.4688C130.729 48.849 130.844 49.3542 130.844 49.9844V54.1562C130.844 54.4375 130.865 54.737 130.906 55.0547C130.953 55.3724 131.018 55.6458 131.102 55.875V56H129.672C129.604 55.8333 129.552 55.612 129.516 55.3359C129.479 55.0547 129.461 54.7943 129.461 54.5547ZM129.68 50.875L129.695 51.8906H128.734C128.406 51.8906 128.107 51.9271 127.836 52C127.57 52.0729 127.341 52.1797 127.148 52.3203C126.956 52.4557 126.807 52.625 126.703 52.8281C126.604 53.0312 126.555 53.263 126.555 53.5234C126.555 53.862 126.602 54.1328 126.695 54.3359C126.789 54.5339 126.93 54.6771 127.117 54.7656C127.305 54.8542 127.542 54.8984 127.828 54.8984C128.177 54.8984 128.484 54.8177 128.75 54.6562C129.016 54.4948 129.221 54.2995 129.367 54.0703C129.518 53.8411 129.589 53.6276 129.578 53.4297L129.883 54.0781C129.862 54.2812 129.794 54.5026 129.68 54.7422C129.57 54.9766 129.417 55.2031 129.219 55.4219C129.021 55.6354 128.786 55.8125 128.516 55.9531C128.25 56.0885 127.951 56.1562 127.617 56.1562C127.128 56.1562 126.698 56.0625 126.328 55.875C125.964 55.6875 125.68 55.4115 125.477 55.0469C125.273 54.6823 125.172 54.2318 125.172 53.6953C125.172 53.2891 125.242 52.9141 125.383 52.5703C125.523 52.2266 125.732 51.9297 126.008 51.6797C126.284 51.4245 126.63 51.2266 127.047 51.0859C127.469 50.9453 127.956 50.875 128.508 50.875H129.68ZM137.805 51.2109V52.3828H134.219V51.2109H137.805ZM134.5 47.5469V56H133.117V47.5469H134.5ZM138.93 47.5469V56H137.547V47.5469H138.93ZM142.633 53.7109L145.695 47.5469H147.078V56H145.695V49.8359L142.633 56H141.258V47.5469H142.633V53.7109ZM152.312 56.1562C151.807 56.1562 151.352 56.0807 150.945 55.9297C150.539 55.7786 150.193 55.5495 149.906 55.2422C149.62 54.9297 149.401 54.5365 149.25 54.0625C149.099 53.5885 149.023 53.0286 149.023 52.3828V51.4297C149.023 50.6849 149.109 50.0547 149.281 49.5391C149.458 49.0234 149.695 48.6094 149.992 48.2969C150.289 47.9792 150.625 47.75 151 47.6094C151.375 47.4635 151.76 47.3906 152.156 47.3906C152.688 47.3906 153.141 47.4766 153.516 47.6484C153.891 47.8203 154.195 48.0755 154.43 48.4141C154.664 48.7526 154.836 49.1693 154.945 49.6641C155.06 50.1589 155.117 50.7292 155.117 51.375V52.1797H149.836V51H153.734V50.8047C153.714 50.3672 153.654 49.9818 153.555 49.6484C153.461 49.3151 153.305 49.0547 153.086 48.8672C152.867 48.6745 152.557 48.5781 152.156 48.5781C151.901 48.5781 151.664 48.6224 151.445 48.7109C151.232 48.7943 151.047 48.9427 150.891 49.1562C150.74 49.3646 150.62 49.6536 150.531 50.0234C150.448 50.3932 150.406 50.862 150.406 51.4297V52.3828C150.406 52.8359 150.448 53.2266 150.531 53.5547C150.62 53.8776 150.747 54.1458 150.914 54.3594C151.086 54.5677 151.294 54.724 151.539 54.8281C151.789 54.9271 152.073 54.9766 152.391 54.9766C152.854 54.9766 153.237 54.888 153.539 54.7109C153.841 54.5286 154.104 54.2969 154.328 54.0156L155.055 54.8828C154.904 55.0964 154.706 55.3021 154.461 55.5C154.221 55.6927 153.924 55.8516 153.57 55.9766C153.221 56.0964 152.802 56.1562 152.312 56.1562ZM161.75 47.5469H163.133L163.031 50.7109C163.005 51.513 162.927 52.2057 162.797 52.7891C162.667 53.3724 162.5 53.8698 162.297 54.2812C162.094 54.6875 161.865 55.0286 161.609 55.3047C161.354 55.5807 161.089 55.8125 160.812 56H160.141L160.172 54.8203L160.445 54.8125C160.596 54.6094 160.74 54.401 160.875 54.1875C161.01 53.9688 161.133 53.7109 161.242 53.4141C161.352 53.112 161.44 52.7448 161.508 52.3125C161.581 51.875 161.628 51.3411 161.648 50.7109L161.75 47.5469ZM162.07 47.5469H166.469V56H165.086V48.8828H162.07V47.5469ZM159.875 54.8125H167.453V58.4922H166.07V56H161.258V58.4922H159.867L159.875 54.8125ZM173.758 47.5469V48.7422H170.391V47.5469H173.758ZM174.992 47.5469V56H173.617V47.5469H174.992ZM170.062 47.5469H171.445L171.25 51.625C171.219 52.2552 171.167 52.8125 171.094 53.2969C171.026 53.776 170.93 54.1875 170.805 54.5312C170.685 54.875 170.534 55.1562 170.352 55.375C170.174 55.5885 169.961 55.7474 169.711 55.8516C169.466 55.9505 169.182 56 168.859 56H168.445V54.7266L168.719 54.7031C168.901 54.6875 169.057 54.6354 169.188 54.5469C169.323 54.4583 169.432 54.3281 169.516 54.1562C169.604 53.9792 169.674 53.7526 169.727 53.4766C169.784 53.2005 169.828 52.8724 169.859 52.4922C169.891 52.112 169.914 51.6693 169.93 51.1641L170.062 47.5469ZM178.609 51.9688H180.094L178.008 56H176.523L178.609 51.9688ZM179.695 47.5469H182.727V56H181.352V48.7188H179.695C179.378 48.7188 179.117 48.7891 178.914 48.9297C178.711 49.0651 178.562 49.2422 178.469 49.4609C178.375 49.6797 178.328 49.9062 178.328 50.1406C178.328 50.3698 178.37 50.5911 178.453 50.8047C178.542 51.013 178.677 51.1849 178.859 51.3203C179.047 51.4557 179.286 51.5234 179.578 51.5234H181.695V52.7109H179.578C179.161 52.7109 178.789 52.6458 178.461 52.5156C178.138 52.3854 177.862 52.2057 177.633 51.9766C177.409 51.7422 177.237 51.4688 177.117 51.1562C177.003 50.8385 176.945 50.4948 176.945 50.125C176.945 49.7552 177.005 49.4141 177.125 49.1016C177.25 48.7891 177.43 48.5156 177.664 48.2812C177.904 48.0469 178.193 47.8672 178.531 47.7422C178.87 47.612 179.258 47.5469 179.695 47.5469ZM190.109 47.5469V56H188.727V47.5469H190.109ZM194.758 47.5469L191.359 52.3906H189.648L189.43 51.125H190.797L193.102 47.5469H194.758ZM193.227 56L190.75 52.1719L191.633 51.125L194.961 56H193.227ZM195.828 52.1797V51.375C195.828 50.7188 195.911 50.1432 196.078 49.6484C196.245 49.1484 196.477 48.7318 196.773 48.3984C197.07 48.0651 197.417 47.8151 197.812 47.6484C198.208 47.4766 198.633 47.3906 199.086 47.3906C199.549 47.3906 199.979 47.4766 200.375 47.6484C200.771 47.8151 201.117 48.0651 201.414 48.3984C201.716 48.7318 201.951 49.1484 202.117 49.6484C202.284 50.1432 202.367 50.7188 202.367 51.375V52.1797C202.367 52.8359 202.284 53.4141 202.117 53.9141C201.951 54.4089 201.719 54.8229 201.422 55.1562C201.125 55.4896 200.779 55.7396 200.383 55.9062C199.987 56.0729 199.56 56.1562 199.102 56.1562C198.643 56.1562 198.216 56.0729 197.82 55.9062C197.424 55.7396 197.076 55.4896 196.773 55.1562C196.477 54.8229 196.245 54.4089 196.078 53.9141C195.911 53.4141 195.828 52.8359 195.828 52.1797ZM197.211 51.375V52.1797C197.211 52.6432 197.258 53.0495 197.352 53.3984C197.445 53.7474 197.578 54.0391 197.75 54.2734C197.922 54.5078 198.122 54.6849 198.352 54.8047C198.581 54.9193 198.831 54.9766 199.102 54.9766C199.414 54.9766 199.688 54.9193 199.922 54.8047C200.161 54.6849 200.359 54.5078 200.516 54.2734C200.672 54.0391 200.789 53.7474 200.867 53.3984C200.945 53.0495 200.984 52.6432 200.984 52.1797V51.375C200.984 50.9115 200.938 50.5078 200.844 50.1641C200.75 49.8151 200.617 49.5234 200.445 49.2891C200.273 49.0495 200.07 48.8724 199.836 48.7578C199.607 48.638 199.357 48.5781 199.086 48.5781C198.82 48.5781 198.573 48.638 198.344 48.7578C198.115 48.8724 197.914 49.0495 197.742 49.2891C197.576 49.5234 197.445 49.8151 197.352 50.1641C197.258 50.5078 197.211 50.9115 197.211 51.375ZM205.984 55.125L207.867 47.5469H209.336L206.547 57.3047C206.479 57.513 206.388 57.737 206.273 57.9766C206.164 58.2214 206.023 58.4531 205.852 58.6719C205.68 58.8906 205.474 59.0677 205.234 59.2031C204.995 59.3438 204.714 59.4141 204.391 59.4141C204.292 59.4141 204.164 59.3984 204.008 59.3672C203.857 59.3359 203.747 59.3099 203.68 59.2891V58.1172C203.711 58.1224 203.76 58.1276 203.828 58.1328C203.896 58.1432 203.945 58.1484 203.977 58.1484C204.247 58.1484 204.477 58.1042 204.664 58.0156C204.857 57.9323 205.021 57.7891 205.156 57.5859C205.292 57.388 205.406 57.1146 205.5 56.7656L205.984 55.125ZM204.766 47.5469L206.445 54.1094L206.805 55.6328L205.82 56.1641L203.258 47.5469H204.766ZM216.172 47.5469V56H214.789V47.5469H216.172ZM215.703 51.4297V52.6172C215.443 52.7266 215.188 52.8255 214.938 52.9141C214.688 52.9974 214.424 53.0651 214.148 53.1172C213.872 53.1641 213.565 53.1875 213.227 53.1875C212.68 53.1875 212.198 53.0729 211.781 52.8438C211.37 52.6094 211.049 52.2578 210.82 51.7891C210.591 51.3151 210.477 50.7188 210.477 50V47.5312H211.859V50C211.859 50.4688 211.911 50.849 212.016 51.1406C212.125 51.4323 212.281 51.6484 212.484 51.7891C212.693 51.9245 212.94 51.9922 213.227 51.9922C213.549 51.9922 213.846 51.9688 214.117 51.9219C214.388 51.8698 214.651 51.8021 214.906 51.7188C215.167 51.6354 215.432 51.5391 215.703 51.4297ZM221.406 56.1562C220.901 56.1562 220.445 56.0807 220.039 55.9297C219.633 55.7786 219.286 55.5495 219 55.2422C218.714 54.9297 218.495 54.5365 218.344 54.0625C218.193 53.5885 218.117 53.0286 218.117 52.3828V51.4297C218.117 50.6849 218.203 50.0547 218.375 49.5391C218.552 49.0234 218.789 48.6094 219.086 48.2969C219.383 47.9792 219.719 47.75 220.094 47.6094C220.469 47.4635 220.854 47.3906 221.25 47.3906C221.781 47.3906 222.234 47.4766 222.609 47.6484C222.984 47.8203 223.289 48.0755 223.523 48.4141C223.758 48.7526 223.93 49.1693 224.039 49.6641C224.154 50.1589 224.211 50.7292 224.211 51.375V52.1797H218.93V51H222.828V50.8047C222.807 50.3672 222.747 49.9818 222.648 49.6484C222.555 49.3151 222.398 49.0547 222.18 48.8672C221.961 48.6745 221.651 48.5781 221.25 48.5781C220.995 48.5781 220.758 48.6224 220.539 48.7109C220.326 48.7943 220.141 48.9427 219.984 49.1562C219.833 49.3646 219.714 49.6536 219.625 50.0234C219.542 50.3932 219.5 50.862 219.5 51.4297V52.3828C219.5 52.8359 219.542 53.2266 219.625 53.5547C219.714 53.8776 219.841 54.1458 220.008 54.3594C220.18 54.5677 220.388 54.724 220.633 54.8281C220.883 54.9271 221.167 54.9766 221.484 54.9766C221.948 54.9766 222.331 54.888 222.633 54.7109C222.935 54.5286 223.198 54.2969 223.422 54.0156L224.148 54.8828C223.997 55.0964 223.799 55.3021 223.555 55.5C223.315 55.6927 223.018 55.8516 222.664 55.9766C222.315 56.0964 221.896 56.1562 221.406 56.1562ZM227.383 53.7109L230.445 47.5469H231.828V56H230.445V49.8359L227.383 56H226.008V47.5469H227.383V53.7109ZM230.078 44.4844H231.25C231.25 44.8906 231.156 45.2526 230.969 45.5703C230.781 45.8828 230.513 46.1276 230.164 46.3047C229.815 46.4818 229.401 46.5703 228.922 46.5703C228.198 46.5703 227.625 46.3776 227.203 45.9922C226.786 45.6016 226.578 45.099 226.578 44.4844H227.75C227.75 44.7917 227.839 45.0625 228.016 45.2969C228.193 45.5312 228.495 45.6484 228.922 45.6484C229.339 45.6484 229.635 45.5312 229.812 45.2969C229.99 45.0625 230.078 44.7917 230.078 44.4844Z" fill="white"/>
<defs>
<clipPath id="clip0_133_10882">
<rect width="293.375" height="24.7053" fill="white"/>
</clipPath>
</defs>
</svg>
